<?xml version="1.0" standalone="no"?>
<!DOCTYPE svg PUBLIC "-//W3C//DTD SVG 20010904//EN"
 "http://www.w3.org/TR/2001/REC-SVG-20010904/DTD/svg10.dtd">
<svg version="1.0" xmlns="http://www.w3.org/2000/svg"
 width="512.000000pt" height="512.000000pt" viewBox="0 0 512.000000 512.000000"
 preserveAspectRatio="xMidYMid meet">

<g transform="translate(0.000000,512.000000) scale(0.100000,-0.100000)"
fill="#000000" stroke="none">
<path d="M3795 3511 c-32 -8 -105 -52 -105 -63 0 -4 14 -28 31 -54 105 -155
145 -402 100 -621 -20 -96 -73 -220 -116 -271 l-25 -30 39 -26 c79 -55 156
-57 235 -5 52 35 82 73 123 154 107 213 106 521 -3 735 -69 136 -177 206 -279
181z"/>
</g>
</svg>
